<svg width="20" height="4" viewBox="0 0 20 4" fill="none" xmlns="http://www.w3.org/2000/svg">
<path d="M10 3C10.5523 3 11 2.55228 11 2C11 1.44772 10.5523 1 10 1C9.44772 1 9 1.44772 9 2C9 2.55228 9.44772 3 10 3Z" stroke="#F8F8F8" stroke-opacity="0.5" stroke-width="1.5" stroke-linecap="round" stroke-linejoin="round"/>
<path d="M18.25 3C18.8023 3 19.25 2.55228 19.25 2C19.25 1.44772 18.8023 1 18.25 1C17.6977 1 17.25 1.44772 17.25 2C17.25 2.55228 17.6977 3 18.25 3Z" stroke="#F8F8F8" stroke-opacity="0.5" stroke-width="1.5" stroke-linecap="round" stroke-linejoin="round"/>
<path d="M1.75 3C2.30228 3 2.75 2.55228 2.75 2C2.75 1.44772 2.30228 1 1.75 1C1.19772 1 0.75 1.44772 0.75 2C0.75 2.55228 1.19772 3 1.75 3Z" stroke="#F8F8F8" stroke-opacity="0.5" stroke-width="1.5" stroke-linecap="round" stroke-linejoin="round"/>
</svg>
