<svg width="24" height="24" viewBox="0 0 24 24" fill="none" xmlns="http://www.w3.org/2000/svg">
<g opacity="0.5">
<path d="M9.16536 4.42071C8.76873 4.5401 8.54397 4.95841 8.66335 5.35505C8.78273 5.75169 9.20105 5.97645 9.59768 5.85706L9.16536 4.42071ZM21.529 11.1176L22.1806 10.7462V10.7462L21.529 11.1176ZM19.1413 14.9666C18.8678 15.2776 18.8982 15.7515 19.2092 16.0251C19.5203 16.2986 19.9942 16.2682 20.2677 15.9571L19.1413 14.9666ZM21.5297 12.8811L20.8781 12.5098V12.5098L21.5297 12.8811ZM3.28029 2.21967C2.9874 1.92678 2.51253 1.92678 2.21963 2.21967C1.92674 2.51256 1.92674 2.98744 2.21963 3.28033L3.28029 2.21967ZM2.47016 11.1188L3.12179 11.4901H3.12179L2.47016 11.1188ZM20.7196 21.7803C21.0125 22.0732 21.4874 22.0732 21.7803 21.7803C22.0732 21.4874 22.0732 21.0126 21.7803 20.7197L20.7196 21.7803ZM2.47125 12.8829L1.81966 13.2543H1.81966L2.47125 12.8829ZM10.2322 10.2322C10.5251 9.93934 10.5251 9.46447 10.2322 9.17157C9.9393 8.87868 9.46443 8.87868 9.17154 9.17157L10.2322 10.2322ZM14.8284 14.8284C15.1213 14.5355 15.1213 14.0607 14.8284 13.7678C14.5355 13.4749 14.0606 13.4749 13.7677 13.7678L14.8284 14.8284ZM9.59768 5.85706C13.5394 4.67067 17.9939 6.42962 20.8774 11.489L22.1806 10.7462C19.0295 5.21732 13.9174 2.99041 9.16536 4.42071L9.59768 5.85706ZM20.2677 15.9571C20.9622 15.1674 21.6043 14.2652 22.1814 13.2524L20.8781 12.5098C20.3482 13.4398 19.7644 14.258 19.1413 14.9666L20.2677 15.9571ZM20.8774 11.489C21.0579 11.8057 21.058 12.1942 20.8781 12.5098L22.1814 13.2524C22.6242 12.4754 22.6229 11.5222 22.1806 10.7462L20.8774 11.489ZM2.21963 3.28033L5.99934 7.06003L7.06 5.99937L3.28029 2.21967L2.21963 3.28033ZM3.12179 11.4901C4.21375 9.57384 5.53387 8.13258 6.95695 7.14609L6.10238 5.91332C4.47301 7.04281 3.00749 8.66097 1.81853 10.7475L3.12179 11.4901ZM5.99934 7.06003L16.9399 18.0006L18.0005 16.9399L7.06 5.99937L5.99934 7.06003ZM16.9399 18.0006L20.7196 21.7803L21.7803 20.7197L18.0005 16.9399L16.9399 18.0006ZM1.81966 13.2543C3.74764 16.6368 6.40542 18.7894 9.2953 19.6173C12.1917 20.4471 15.2481 19.9232 17.8975 18.0866L17.0429 16.8539C14.7434 18.4479 12.1496 18.8747 9.7084 18.1753C7.26065 17.4741 4.8934 15.6178 3.12283 12.5115L1.81966 13.2543ZM1.81853 10.7475C1.37557 11.5249 1.37752 12.4786 1.81966 13.2543L3.12283 12.5115C2.94218 12.1946 2.9421 11.8055 3.12179 11.4901L1.81853 10.7475ZM12 14.5C10.6193 14.5 9.49996 13.3807 9.49996 12H7.99996C7.99996 14.2091 9.79082 16 12 16V14.5ZM9.49996 12C9.49996 11.3094 9.77896 10.6855 10.2322 10.2322L9.17154 9.17157C8.4485 9.89461 7.99996 10.8956 7.99996 12H9.49996ZM13.7677 13.7678C13.3145 14.221 12.6905 14.5 12 14.5V16C13.1043 16 14.1054 15.5515 14.8284 14.8284L13.7677 13.7678Z" fill="#F8F8F8" fill-opacity="0.5"/>
</g>
</svg>
