<svg width="24" height="24" viewBox="0 0 24 24" fill="none" xmlns="http://www.w3.org/2000/svg">
<g opacity="0.5">
<path d="M2.72589 10.6849L3.3664 11.0751V11.0751L2.72589 10.6849ZM21.2741 10.685L20.6336 11.0752V11.0752L21.2741 10.685ZM2.72589 13.3149L2.08537 13.7051H2.08537L2.72589 13.3149ZM21.2741 13.3151L21.9146 13.7052L21.2741 13.3151ZM3.3664 11.0751C5.66857 7.29588 8.87944 5.49998 12 5.5C15.1206 5.50002 18.3314 7.29598 20.6336 11.0752L21.9146 10.2948C19.3963 6.16075 15.7433 4.00003 12 4C8.2567 3.99997 4.60372 6.16064 2.08537 10.2947L3.3664 11.0751ZM2.08537 13.7051C4.60371 17.8392 8.25669 19.9999 12 19.9999C15.7433 20 19.3963 17.8393 21.9146 13.7052L20.6336 12.9249C18.3314 16.704 15.1206 18.4999 12 18.4999C8.87945 18.4999 5.66857 16.7039 3.3664 12.9248L2.08537 13.7051ZM2.08537 10.2947C1.44867 11.3399 1.44867 12.6599 2.08537 13.7051L3.3664 12.9248C3.02166 12.3588 3.02167 11.641 3.3664 11.0751L2.08537 10.2947ZM20.6336 11.0752C20.9783 11.6411 20.9783 12.359 20.6336 12.9249L21.9146 13.7052C22.5513 12.66 22.5513 11.34 21.9146 10.2948L20.6336 11.0752ZM14.5 12C14.5 13.3807 13.3807 14.5 12 14.5V16C14.2091 16 16 14.2091 16 12H14.5ZM12 14.5C10.6193 14.5 9.5 13.3807 9.5 12H8C8 14.2091 9.79086 16 12 16V14.5ZM9.5 12C9.5 10.6193 10.6193 9.5 12 9.5V8C9.79086 8 8 9.79086 8 12H9.5ZM12 9.5C13.3807 9.5 14.5 10.6193 14.5 12H16C16 9.79086 14.2091 8 12 8V9.5Z" fill="#F8F8F8" fill-opacity="0.5"/>
</g>
</svg>
