<svg width="25" height="24" viewBox="0 0 25 24" fill="none" xmlns="http://www.w3.org/2000/svg">
<g clip-path="url(#clip0_13241_116843)">
<path d="M22.4905 12.1873C22.4905 11.3679 22.4224 10.77 22.2752 10.1499H12.6992V13.8482H18.3201C18.2068 14.7673 17.5948 16.1514 16.2349 17.0815L16.2159 17.2053L19.2436 19.4972L19.4534 19.5176C21.3798 17.7791 22.4905 15.2213 22.4905 12.1873Z" fill="#4285F4"/>
<path d="M12.6992 21.9312C15.453 21.9312 17.7648 21.0453 19.4534 19.5173L16.2349 17.0812C15.3737 17.6681 14.2177 18.0777 12.6992 18.0777C10.0021 18.0777 7.71297 16.3393 6.89695 13.9365L6.77734 13.9464L3.62906 16.3271L3.58789 16.439C5.26508 19.6944 8.71016 21.9312 12.6992 21.9312Z" fill="#34A853"/>
<path d="M6.89695 13.9368C6.68164 13.3167 6.55703 12.6523 6.55703 11.9658C6.55703 11.2793 6.68164 10.6149 6.88562 9.99484L6.87992 9.86278L3.69219 7.44385L3.58789 7.49232C2.89664 8.84324 2.5 10.3603 2.5 11.9658C2.5 13.5714 2.89664 15.0884 3.58789 16.4393L6.89695 13.9368Z" fill="#FBBC05"/>
<path d="M12.6992 5.85336C14.6144 5.85336 15.9062 6.66168 16.6429 7.33718L19.5213 4.59107C17.7535 2.9855 15.453 2 12.6992 2C8.71016 2 5.26508 4.23672 3.58789 7.49214L6.88563 9.99466C7.71297 7.59183 10.0021 5.85336 12.6992 5.85336Z" fill="#EB4335"/>
</g>
<defs>
<clipPath id="clip0_13241_116843">
<rect width="20" height="20" fill="white" transform="translate(2.5 2)"/>
</clipPath>
</defs>
</svg>
