<svg width="18" height="20" viewBox="0 0 18 20" fill="none" xmlns="http://www.w3.org/2000/svg">
<path d="M5.96046 2.73687L6.43539 3.31734L5.96046 2.73687ZM8.1874 1.23831L8.39055 1.96027L8.1874 1.23831ZM12.0395 2.73687L12.5145 2.15641H12.5145L12.0395 2.73687ZM9.8126 1.23831L9.60945 1.96027L9.8126 1.23831ZM2.38803 18.923L2.04754 19.5913L2.38803 18.923ZM0.75 14.45H1.5H0.75ZM1.07698 17.6119L0.408726 17.9524L1.07698 17.6119ZM16.923 17.6119L17.5913 17.9524L16.923 17.6119ZM15.612 18.923L15.9525 19.5913L15.612 18.923ZM17.1449 7.63438L16.4212 7.83119L17.1449 7.63438ZM15.4895 5.5596L15.0146 6.14007L15.0146 6.14007L15.4895 5.5596ZM16.6924 6.67962L16.0818 7.11512L16.6924 6.67962ZM0.75 9.2746H0H0.75ZM0.855132 7.63438L1.57885 7.83119L0.855132 7.63438ZM2.51046 5.5596L2.98539 6.14007L2.51046 5.5596ZM1.30757 6.67962L1.91818 7.11512L1.30757 6.67962ZM4.75 14.5C4.33579 14.5 4 14.8358 4 15.25C4 15.6642 4.33579 16 4.75 16V14.5ZM13.25 16C13.6642 16 14 15.6642 14 15.25C14 14.8358 13.6642 14.5 13.25 14.5V16ZM16.5 9.2746V14.45H18V9.2746H16.5ZM12.45 18.5H5.55V20H12.45V18.5ZM1.5 14.45V9.2746H0V14.45H1.5ZM2.98539 6.14007L6.43539 3.31734L5.48553 2.1564L2.03553 4.97913L2.98539 6.14007ZM11.5646 3.31734L15.0146 6.14007L15.9645 4.97914L12.5145 2.15641L11.5646 3.31734ZM6.43539 3.31734C6.98538 2.86735 7.36669 2.55599 7.68468 2.33297C7.99494 2.11538 8.20233 2.01324 8.39055 1.96027L7.98426 0.516345C7.56987 0.632946 7.20524 0.837088 6.82339 1.10489C6.44929 1.36726 6.01843 1.72039 5.48553 2.1564L6.43539 3.31734ZM12.5145 2.15641C11.9816 1.72039 11.5507 1.36726 11.1766 1.10489C10.7948 0.837088 10.4301 0.632946 10.0157 0.516345L9.60945 1.96027C9.79767 2.01324 10.0051 2.11538 10.3153 2.33297C10.6333 2.55599 11.0146 2.86735 11.5646 3.31734L12.5145 2.15641ZM8.39055 1.96027C8.78911 1.84812 9.21089 1.84812 9.60945 1.96027L10.0157 0.516345C9.35148 0.329431 8.64852 0.329431 7.98426 0.516345L8.39055 1.96027ZM5.55 18.5C4.69755 18.5 4.10331 18.4994 3.64068 18.4616C3.1868 18.4245 2.92604 18.3554 2.72852 18.2547L2.04754 19.5913C2.49175 19.8176 2.97189 19.912 3.51853 19.9566C4.05641 20.0006 4.7223 20 5.55 20V18.5ZM0 14.45C0 15.2777 -0.000583291 15.9436 0.0433634 16.4814C0.0880254 17.0281 0.182385 17.5082 0.408726 17.9524L1.74524 17.2715C1.6446 17.0739 1.57546 16.8132 1.53838 16.3593C1.50058 15.8967 1.5 15.3024 1.5 14.45H0ZM2.72852 18.2547C2.30516 18.039 1.96095 17.6948 1.74524 17.2715L0.408726 17.9524C0.768251 18.658 1.34193 19.2317 2.04754 19.5913L2.72852 18.2547ZM16.5 14.45C16.5 15.3024 16.4994 15.8967 16.4616 16.3593C16.4245 16.8132 16.3554 17.0739 16.2548 17.2715L17.5913 17.9524C17.8176 17.5082 17.912 17.0281 17.9566 16.4814C18.0006 15.9436 18 15.2777 18 14.45H16.5ZM12.45 20C13.2777 20 13.9436 20.0006 14.4815 19.9566C15.0281 19.912 15.5082 19.8176 15.9525 19.5913L15.2715 18.2547C15.074 18.3554 14.8132 18.4245 14.3593 18.4616C13.8967 18.4994 13.3025 18.5 12.45 18.5V20ZM16.2548 17.2715C16.039 17.6948 15.6948 18.039 15.2715 18.2547L15.9525 19.5913C16.6581 19.2317 17.2317 18.658 17.5913 17.9524L16.2548 17.2715ZM18 9.2746C18 8.47994 18.0062 7.94346 17.8686 7.43757L16.4212 7.83119C16.4938 8.0985 16.5 8.39776 16.5 9.2746H18ZM15.0146 6.14007C15.6932 6.69532 15.921 6.88959 16.0818 7.11512L17.303 6.24412C16.9986 5.8173 16.5795 5.48234 15.9645 4.97914L15.0146 6.14007ZM17.8686 7.43757C17.7522 7.00943 17.5607 6.60534 17.303 6.24412L16.0818 7.11512C16.2364 7.33185 16.3513 7.5743 16.4212 7.83119L17.8686 7.43757ZM1.5 9.2746C1.5 8.39776 1.50616 8.0985 1.57885 7.83119L0.131414 7.43757C-0.00615668 7.94346 0 8.47994 0 9.2746H1.5ZM2.03553 4.97913C1.4205 5.48234 1.00139 5.8173 0.696969 6.24412L1.91818 7.11512C2.07903 6.88959 2.30675 6.69532 2.98539 6.14007L2.03553 4.97913ZM1.57885 7.83119C1.64871 7.5743 1.7636 7.33185 1.91818 7.11512L0.696969 6.24412C0.439331 6.60534 0.247844 7.00943 0.131414 7.43757L1.57885 7.83119ZM4.75 16H13.25V14.5H4.75V16Z" fill="#F8F8F8" fill-opacity="0.95"/>
</svg>
