<svg width="36" height="32" viewBox="0 0 36 32" fill="none" xmlns="http://www.w3.org/2000/svg">
<g opacity="0.8">
<path d="M19.75 11H9.75M19.75 11C19.75 9.20437 21.2044 7.75 23 7.75C24.7956 7.75 26.25 9.20437 26.25 11C26.25 12.7956 24.7956 14.25 23 14.25C21.2044 14.25 19.75 12.7956 19.75 11ZM26.25 21H18.25M18.25 21C18.25 22.7956 16.7956 24.25 15 24.25C13.2044 24.25 11.75 22.7956 11.75 21M18.25 21C18.25 19.2044 16.7956 17.75 15 17.75C13.2044 17.75 11.75 19.2044 11.75 21M11.75 21H9.75" stroke="#F8F8F8" stroke-opacity="0.7" stroke-width="1.5" stroke-linecap="round" stroke-linejoin="round"/>
</g>
</svg>
