<svg width="44" height="44" viewBox="0 0 44 44" fill="none" xmlns="http://www.w3.org/2000/svg">
<g filter="url(#filter0_bi_13391_165256)">
<rect width="44" height="44" rx="22" fill="#282828" fill-opacity="0.7"/>
<rect x="0.75" y="0.75" width="42.5" height="42.5" rx="21.25" stroke="url(#paint0_linear_13391_165256)" stroke-opacity="0.25" stroke-width="1.5"/>
<g opacity="0.8">
<g opacity="0.8">
<path d="M22 23C22.5523 23 23 22.5523 23 22C23 21.4477 22.5523 21 22 21C21.4477 21 21 21.4477 21 22C21 22.5523 21.4477 23 22 23Z" stroke="#F8F8F8" stroke-opacity="0.7" stroke-width="1.5" stroke-linecap="round" stroke-linejoin="round"/>
<path d="M30.25 23C30.8023 23 31.25 22.5523 31.25 22C31.25 21.4477 30.8023 21 30.25 21C29.6977 21 29.25 21.4477 29.25 22C29.25 22.5523 29.6977 23 30.25 23Z" stroke="#F8F8F8" stroke-opacity="0.7" stroke-width="1.5" stroke-linecap="round" stroke-linejoin="round"/>
<path d="M13.75 23C14.3023 23 14.75 22.5523 14.75 22C14.75 21.4477 14.3023 21 13.75 21C13.1977 21 12.75 21.4477 12.75 22C12.75 22.5523 13.1977 23 13.75 23Z" stroke="#F8F8F8" stroke-opacity="0.7" stroke-width="1.5" stroke-linecap="round" stroke-linejoin="round"/>
</g>
</g>
</g>
<defs>
<filter id="filter0_bi_13391_165256" x="-100" y="-100" width="244" height="244" filterUnits="userSpaceOnUse" color-interpolation-filters="sRGB">
<feFlood flood-opacity="0" result="BackgroundImageFix"/>
<feGaussianBlur in="BackgroundImageFix" stdDeviation="50"/>
<feComposite in2="SourceAlpha" operator="in" result="effect1_backgroundBlur_13391_165256"/>
<feBlend mode="normal" in="SourceGraphic" in2="effect1_backgroundBlur_13391_165256" result="shape"/>
<feColorMatrix in="SourceAlpha" type="matrix" values="0 0 0 0 0 0 0 0 0 0 0 0 0 0 0 0 0 0 127 0" result="hardAlpha"/>
<feOffset dx="2" dy="4"/>
<feGaussianBlur stdDeviation="8"/>
<feComposite in2="hardAlpha" operator="arithmetic" k2="-1" k3="1"/>
<feColorMatrix type="matrix" values="0 0 0 0 0.972549 0 0 0 0 0.972549 0 0 0 0 0.972549 0 0 0 0.06 0"/>
<feBlend mode="normal" in2="shape" result="effect2_innerShadow_13391_165256"/>
</filter>
<linearGradient id="paint0_linear_13391_165256" x1="22" y1="-4.99302e-07" x2="41.1409" y2="48.3174" gradientUnits="userSpaceOnUse">
<stop stop-color="white" stop-opacity="0.4"/>
<stop offset="0.4" stop-color="white" stop-opacity="0.01"/>
<stop offset="0.6" stop-color="white" stop-opacity="0.01"/>
<stop offset="1" stop-color="white" stop-opacity="0.1"/>
</linearGradient>
</defs>
</svg>
