<svg width="18" height="18" viewBox="0 0 18 18" fill="none" xmlns="http://www.w3.org/2000/svg">
<path d="M2.75 9.36761C2.75 11.0113 3.70955 12 5.34036 12C6.79045 12 7.76721 11.138 7.76721 9.8662V9.51549C7.76721 8.97887 7.51764 8.73803 6.94966 8.73803H5.89544C5.51678 8.73803 5.31454 8.91127 5.31454 9.22817C5.31454 9.5493 5.52108 9.72676 5.89544 9.72676H6.4247V9.97183C6.4247 10.5 6.01162 10.8549 5.3963 10.8549C4.60456 10.8549 4.16997 10.3268 4.16997 9.36338V8.6662C4.16997 7.69014 4.59596 7.17887 5.40921 7.17887C5.96429 7.17887 6.287 7.50845 6.63554 7.8507C6.76033 7.97324 6.88941 8.02817 7.05723 8.02817C7.39716 8.02817 7.63382 7.8 7.63382 7.4662C7.63382 7.13239 7.37995 6.76901 6.99268 6.49437C6.56239 6.17746 5.97289 6 5.30594 6C3.72246 6 2.75 7.00141 2.75 8.59859V9.36761Z" fill="#F8F8F8" fill-opacity="0.5"/>
<path d="M9.38941 11.9155C9.84122 11.9155 10.0951 11.6451 10.0951 11.1634V6.81549C10.0951 6.33803 9.83692 6.06338 9.38081 6.06338C8.9247 6.06338 8.67083 6.3338 8.67083 6.81549V11.1634C8.67083 11.6408 8.9333 11.9155 9.38941 11.9155Z" fill="#F8F8F8" fill-opacity="0.5"/>
<path d="M11.9626 11.9155C12.4101 11.9155 12.6596 11.6451 12.6596 11.1634V9.70141H14.4669C14.8025 9.70141 15.0306 9.48169 15.0306 9.15634C15.0306 8.83099 14.8068 8.61127 14.4669 8.61127H12.6596V7.22535H14.6863C15.0133 7.22535 15.25 6.99718 15.25 6.67183C15.25 6.34225 15.0133 6.10563 14.6863 6.10563H12.0572C11.5237 6.10563 11.2354 6.38873 11.2354 6.90423V11.1634C11.2354 11.6366 11.5022 11.9155 11.9626 11.9155Z" fill="#F8F8F8" fill-opacity="0.5"/>
<path fill-rule="evenodd" clip-rule="evenodd" d="M0 3.75C0 1.67893 1.67893 0 3.75 0H14.25C16.3211 0 18 1.67893 18 3.75V14.25C18 16.3211 16.3211 18 14.25 18H3.75C1.67893 18 0 16.3211 0 14.25V3.75ZM3.75 1.5C2.50736 1.5 1.5 2.50736 1.5 3.75V14.25C1.5 15.4926 2.50736 16.5 3.75 16.5H14.25C15.4926 16.5 16.5 15.4926 16.5 14.25V3.75C16.5 2.50736 15.4926 1.5 14.25 1.5H3.75Z" fill="#F8F8F8" fill-opacity="0.5"/>
</svg>
